<?xml version="1.0" encoding="UTF-8" standalone="no"?>
<svg
   width="20"
   height="20"
   viewBox="0 0 20 20"
   fill="none"
   version="1.1"
   id="svg11"
   sodipodi:docname="account.svg"
   inkscape:version="1.2.2 (732a01da63, 2022-12-09)"
   xmlns:inkscape="http://www.inkscape.org/namespaces/inkscape"
   xmlns:sodipodi="http://sodipodi.sourceforge.net/DTD/sodipodi-0.dtd"
   xmlns="http://www.w3.org/2000/svg"
   xmlns:svg="http://www.w3.org/2000/svg">
  <sodipodi:namedview
     id="namedview13"
     pagecolor="#474747"
     bordercolor="#000000"
     borderopacity="0.25"
     inkscape:showpageshadow="2"
     inkscape:pageopacity="0"
     inkscape:pagecheckerboard="0"
     inkscape:deskcolor="#d1d1d1"
     showgrid="false"
     inkscape:zoom="11.479167"
     inkscape:cx="-0.87114338"
     inkscape:cy="15.419238"
     inkscape:window-width="1366"
     inkscape:window-height="705"
     inkscape:window-x="-8"
     inkscape:window-y="-8"
     inkscape:window-maximized="1"
     inkscape:current-layer="svg11" />
  <desc
     id="desc2">
			Created with Pixso.
	</desc>
  <defs
     id="defs4" />
  <rect
     id="Icons General / cart"
     width="24"
     height="24"
     fill="#ffffff"
     fill-opacity="0"
     x="-2"
     y="-2" />
  <path
     id="icon/action/account_circle_24px"
     d="M 10,0 C 4.47998,0 0,4.48001 0,10 0,15.52 4.47998,20 10,20 15.52,20 20,15.52 20,10 20,4.48001 15.52,0 10,0 Z m 0,12.5 c 1.46,0 4.9301,0.59 6.36,2.33 C 17.38,13.49 18,11.82 18,10 18,5.59 14.41,2 10,2 5.58997,2 2,5.59 2,10 2,11.82 2.62,13.49 3.64001,14.83 5.06995,13.09 8.54,12.5 10,12.5 Z M 10,4 C 8.0601,4 6.5,5.56 6.5,7.5 6.5,9.44 8.0601,11 10,11 11.9399,11 13.5,9.44 13.5,7.5 13.5,5.56 11.9399,4 10,4 Z M 8.5,7.5 C 8.5,8.33 9.17,9 10,9 10.83,9 11.5,8.33 11.5,7.5 11.5,6.67001 10.83,6 10,6 9.17,6 8.5,6.67001 8.5,7.5 Z M 5.06995,16.28 C 5.5,15.38 8.12,14.5 10,14.5 c 1.88,0 4.51,0.88 4.9301,1.78 C 13.5699,17.36 11.86,18 10,18 8.14,18 6.43005,17.36 5.06995,16.28 Z"
     clip-rule="evenodd"
     fill="#ffffff"
     fill-opacity="1"
     fill-rule="evenodd" />
  <mask
     id="mask1_57"
     mask-type="alpha"
     maskUnits="userSpaceOnUse"
     x="2.000000"
     y="2.000000"
     width="20.000000"
     height="20.000000">
    <path
       id="path8"
       d="M 12,2 C 6.47998,2 2,6.48001 2,12 2,17.52 6.47998,22 12,22 17.52,22 22,17.52 22,12 22,6.48001 17.52,2 12,2 Z m 0,12.5 c 1.46,0 4.9301,0.59 6.36,2.33 C 19.38,15.49 20,13.82 20,12 20,7.59 16.41,4 12,4 7.58997,4 4,7.59 4,12 4,13.82 4.62,15.49 5.64001,16.83 7.06995,15.09 10.54,14.5 12,14.5 Z M 12,6 C 10.0601,6 8.5,7.56 8.5,9.5 8.5,11.44 10.0601,13 12,13 13.9399,13 15.5,11.44 15.5,9.5 15.5,7.56 13.9399,6 12,6 Z m -1.5,3.5 c 0,0.83 0.67,1.5 1.5,1.5 0.83,0 1.5,-0.67 1.5,-1.5 C 13.5,8.67001 12.83,8 12,8 11.17,8 10.5,8.67001 10.5,9.5 Z M 7.06995,18.28 C 7.5,17.38 10.12,16.5 12,16.5 c 1.88,0 4.51,0.88 4.9301,1.78 C 15.5699,19.36 13.86,20 12,20 10.14,20 8.43005,19.36 7.06995,18.28 Z"
       clip-rule="evenodd"
       fill="#ffffff"
       fill-opacity="1"
       fill-rule="evenodd" />
  </mask>
</svg>
