<?xml version="1.0" encoding="UTF-8" standalone="no"?>
<svg
   width="20"
   height="20"
   viewBox="0 0 20 20"
   fill="none"
   version="1.1"
   id="svg197"
   sodipodi:docname="instagram.svg"
   inkscape:version="1.2.2 (732a01da63, 2022-12-09)"
   xmlns:inkscape="http://www.inkscape.org/namespaces/inkscape"
   xmlns:sodipodi="http://sodipodi.sourceforge.net/DTD/sodipodi-0.dtd"
   xmlns="http://www.w3.org/2000/svg"
   xmlns:svg="http://www.w3.org/2000/svg">
  <sodipodi:namedview
     id="namedview199"
     pagecolor="#525252"
     bordercolor="#000000"
     borderopacity="0.25"
     inkscape:showpageshadow="2"
     inkscape:pageopacity="0"
     inkscape:pagecheckerboard="0"
     inkscape:deskcolor="#d1d1d1"
     showgrid="false"
     inkscape:zoom="22.958333"
     inkscape:cx="5.1397459"
     inkscape:cy="10.018149"
     inkscape:window-width="1366"
     inkscape:window-height="705"
     inkscape:window-x="-8"
     inkscape:window-y="-8"
     inkscape:window-maximized="1"
     inkscape:current-layer="svg197" />
  <desc
     id="desc188">
			Created with Pixso.
	</desc>
  <defs
     id="defs192">
    <clipPath
       id="clip1_73">
      <rect
         id="instagram"
         width="24"
         height="24"
         fill="#ffffff"
         fill-opacity="0"
         x="0"
         y="0" />
    </clipPath>
  </defs>
  <g
     clip-path="url(#clip1_73)"
     id="g195"
     transform="translate(-2,-2)">
    <path
       id="Vector"
       d="M 7.79,2 H 16.2 C 19.4,2 22,4.59 22,7.8 v 8.4 C 22,19.4 19.4,22 16.2,22 H 7.79 C 4.59,22 2,19.4 2,16.2 V 7.8 C 2,4.59 4.59,2 7.79,2 Z M 7.59,4 C 5.61,4 4,5.61 4,7.6 v 8.8 C 4,18.38 5.61,20 7.59,20 H 16.4 C 18.38,20 20,18.38 20,16.4 V 7.6 C 20,5.61 18.38,4 16.4,4 Z m 9.66,1.5 c 0.69,0 1.25,0.55 1.25,1.25 C 18.5,7.44 17.94,8 17.25,8 16.55,8 16,7.44 16,6.75 16,6.05 16.55,5.5 17.25,5.5 Z M 12,7 c 2.76,0 5,2.23 5,5 0,2.76 -2.24,5 -5,5 C 9.23,17 7,14.76 7,12 7,9.23 9.23,7 12,7 Z m 0,2 c -1.66,0 -3,1.34 -3,3 0,1.65 1.34,3 3,3 1.65,0 3,-1.35 3,-3 0,-1.66 -1.35,-3 -3,-3 z"
       fill="#ffffff"
       fill-opacity="1"
       fill-rule="nonzero" />
  </g>
</svg>
