<?xml version="1.0" encoding="UTF-8" standalone="no"?>
<svg
   width="20.91"
   height="17"
   viewBox="0 0 20.91 17"
   fill="none"
   version="1.1"
   id="svg327"
   sodipodi:docname="twitter.svg"
   inkscape:version="1.2.2 (732a01da63, 2022-12-09)"
   xmlns:inkscape="http://www.inkscape.org/namespaces/inkscape"
   xmlns:sodipodi="http://sodipodi.sourceforge.net/DTD/sodipodi-0.dtd"
   xmlns="http://www.w3.org/2000/svg"
   xmlns:svg="http://www.w3.org/2000/svg">
  <sodipodi:namedview
     id="namedview329"
     pagecolor="#757575"
     bordercolor="#000000"
     borderopacity="0.25"
     inkscape:showpageshadow="2"
     inkscape:pageopacity="0"
     inkscape:pagecheckerboard="0"
     inkscape:deskcolor="#d1d1d1"
     showgrid="false"
     inkscape:zoom="22.958333"
     inkscape:cx="5.6188748"
     inkscape:cy="8.0145191"
     inkscape:window-width="1366"
     inkscape:window-height="705"
     inkscape:window-x="-8"
     inkscape:window-y="-8"
     inkscape:window-maximized="1"
     inkscape:current-layer="svg327" />
  <desc
     id="desc318">
			Created with Pixso.
	</desc>
  <defs
     id="defs322">
    <clipPath
       id="clip1_83">
      <rect
         id="twitter"
         width="24"
         height="24"
         fill="#ffffff"
         fill-opacity="0"
         x="0"
         y="0" />
    </clipPath>
  </defs>
  <g
     clip-path="url(#clip1_83)"
     id="g325"
     transform="translate(-1.54,-4)">
    <path
       id="Vector"
       d="M 22.45,6.01 C 21.68,6.35 20.86,6.58 19.99,6.68 20.88,6.15 21.56,5.31 21.88,4.31 21.05,4.8 20.13,5.16 19.15,5.35 18.37,4.52 17.25,4 16.02,4 c -2.37,0 -4.29,1.92 -4.29,4.29 0,0.33 0.03,0.66 0.11,0.97 C 8.27,9.09 5.11,7.38 2.99,4.78 2.62,5.41 2.41,6.15 2.41,6.94 c 0,1.49 0.76,2.8 1.91,3.57 -0.7,-0.02 -1.37,-0.22 -1.94,-0.54 0,0.02 0,0.04 0,0.06 0,2.08 1.48,3.81 3.44,4.21 -0.36,0.09 -0.74,0.15 -1.13,0.15 -0.28,0 -0.55,-0.03 -0.81,-0.08 0.55,1.7 2.13,2.95 4.01,2.98 -1.47,1.15 -3.32,1.84 -5.33,1.84 -0.35,0 -0.69,-0.02 -1.02,-0.06 1.9,1.21 4.15,1.93 6.57,1.93 7.9,0 12.22,-6.54 12.22,-12.22 0,-0.18 -0.01,-0.37 -0.02,-0.55 0.84,-0.61 1.57,-1.36 2.14,-2.22 z"
       fill="#ffffff"
       fill-opacity="1"
       fill-rule="nonzero" />
  </g>
</svg>
